<?xml version="1.0" encoding="UTF-8" standalone="no"?>
<svg width="18px" height="20px" viewBox="0 0 18 20" version="1.1" xmlns="http://www.w3.org/2000/svg" xmlns:xlink="http://www.w3.org/1999/xlink">
    <!-- Generator: Sketch 39.1 (31720) - http://www.bohemiancoding.com/sketch -->
    <title>Slice 1</title>
    <desc>Created with Sketch.</desc>
    <defs></defs>
    <g id="Page-1" stroke="none" stroke-width="1" fill="none" fill-rule="evenodd">
        <g id="avatar" fill="#FFFFFF">
            <path d="M18,16.6 C18,17.6 17.7,18.5 17.1,19.1 C16.5,19.7 15.7,20 14.6,20 L3.4,20 C2.4,20 1.5,19.7 0.9,19.1 C0.3,18.5 0,17.7 0,16.6 L0,15.3 C0,14.9 0.1,14.4 0.2,13.9 C0.3,13.4 0.4,12.9 0.5,12.5 C0.6,12.1 0.8,11.6 1,11.2 C1.2,10.8 1.5,10.4 1.8,10.1 C2.1,9.8 2.5,9.6 2.9,9.4 C3.3,9.2 3.8,9.1 4.3,9.1 C4.4,9.1 4.6,9.2 4.8,9.4 C5.1,9.6 5.4,9.8 5.8,10 C6.2,10.2 6.6,10.4 7.2,10.6 C7.9,10.9 8.4,11 9,11 C9.6,11 10.1,10.9 10.7,10.7 C11.3,10.5 11.7,10.3 12.1,10.1 C12.5,9.9 12.8,9.7 13.1,9.5 C13.4,9.3 13.6,9.2 13.6,9.2 C14.1,9.2 14.6,9.3 15,9.5 C15.4,9.7 15.8,9.9 16.1,10.2 C16.4,10.5 16.7,10.8 16.9,11.3 C17.1,11.7 17.3,12.1 17.4,12.6 C17.5,13 17.6,13.5 17.7,14 C17.8,14.5 17.8,15 17.9,15.4 C18,15.7 18,16.2 18,16.6 L18,16.6 L18,16.6 Z M13.9,5 C13.9,6.4 13.4,7.6 12.5,8.5 C11.5,9.5 10.4,10 9,10 C7.6,10 6.5,9.5 5.5,8.5 C4.5,7.5 4.1,6.3 4.1,5 C4.1,3.6 4.6,2.4 5.5,1.5 C6.5,0.5 7.6,0 9,0 C10.4,0 11.5,0.5 12.5,1.5 C13.5,2.5 13.9,3.6 13.9,5 L13.9,5 L13.9,5 Z" id="Page-1"></path>
        </g>
    </g>
</svg>