<?xml version="1.0" encoding="UTF-8" standalone="no"?>
<svg width="20px" height="16px" viewBox="0 0 20 16" version="1.1" xmlns="http://www.w3.org/2000/svg" xmlns:xlink="http://www.w3.org/1999/xlink">
    <!-- Generator: Sketch 39.1 (31720) - http://www.bohemiancoding.com/sketch -->
    <title>Slice 1</title>
    <desc>Created with Sketch.</desc>
    <defs></defs>
    <g id="Page-1" stroke="none" stroke-width="1" fill="none" fill-rule="evenodd">
        <g id="email" fill="#FFFFFF">
            <path d="M20,5.2 L20,14.2 C20,14.7 19.8,15.1 19.5,15.5 C19.2,15.9 18.7,16 18.2,16 L1.8,16 C1.3,16 0.9,15.8 0.5,15.5 C0.2,15.1 0,14.7 0,14.2 L0,5.2 C0.3,5.6 0.7,5.9 1.1,6.2 C3.8,8.1 5.6,9.4 6.6,10.1 C7,10.4 7.4,10.7 7.6,10.8 C8,11 8.3,11.2 8.8,11.4 C9.2,11.6 9.6,11.7 10,11.7 L10,11.7 L10,11.7 C10.4,11.7 10.8,11.6 11.2,11.4 C11.6,11.2 12,11 12.3,10.9 C12.6,10.7 12.9,10.5 13.3,10.2 C14.6,9.3 16.4,8 18.9,6.3 L20,5.2 L20,5.2 L20,5.2 Z M20,1.8 C20,2.4 19.8,3 19.5,3.5 C19.1,4 18.7,4.5 18.1,4.9 C15.3,6.9 13.6,8.1 12.9,8.6 C12.8,8.7 12.7,8.8 12.4,8.9 C12.2,9.1 12,9.2 11.8,9.3 C11.6,9.4 11.4,9.5 11.2,9.7 C11,9.8 10.8,9.9 10.6,10 C10.4,10.1 10.2,10.1 10,10.1 L10,10.1 L10,10.1 C9.8,10.1 9.6,10.1 9.4,10 C9.2,9.9 9,9.9 8.8,9.8 C8.6,9.7 8.4,9.5 8.2,9.4 C8,9.3 7.8,9.1 7.6,9 C7.4,8.8 7.2,8.7 7.1,8.7 C6.4,8.2 5.4,7.5 4.2,6.6 C2.9,5.7 2.2,5.2 1.9,5 C1.4,4.7 1,4.2 0.6,3.7 C0.2,3.2 0,2.5 0,2.1 C0,1.5 0.2,1 0.5,0.6 C0.8,0.2 1.2,0 1.8,0 L18.2,0 C18.7,0 19.1,0.2 19.5,0.5 C19.8,0.9 20,1.3 20,1.8 L20,1.8 L20,1.8 Z" id="Page-1"></path>
        </g>
    </g>
</svg>