<?xml version="1.0" encoding="UTF-8" standalone="no"?>
<svg width="20px" height="20px" viewBox="0 0 20 20" version="1.1" xmlns="http://www.w3.org/2000/svg" xmlns:xlink="http://www.w3.org/1999/xlink">
    <!-- Generator: Sketch 39.1 (31720) - http://www.bohemiancoding.com/sketch -->
    <title>Slice 1</title>
    <desc>Created with Sketch.</desc>
    <defs></defs>
    <g id="Page-1" stroke="none" stroke-width="1" fill="none" fill-rule="evenodd">
        <g id="globe" fill="#FFFFFF">
            <path d="M10,0 C12.8,0 15.1,1 17.1,2.9 C19.1,4.8 20,7.2 20,10 C20,12.8 19,15.1 17.1,17.1 C15.2,19.1 12.8,20 10,20 C7.2,20 4.9,19 2.9,17.1 C0.9,15.2 0,12.8 0,10 C0,7.2 1,4.9 2.9,2.9 C4.8,0.9 7.2,0 10,0 L10,0 L10,0 Z M8.9,18.5 C9,18.4 9.1,18.2 9.2,18 C9.3,17.8 9.4,17.6 9.5,17.5 C9.6,17.4 9.6,17.2 9.6,17.1 C9.6,17 9.5,16.8 9.4,16.7 C8.9,16.3 8.5,15.9 8.3,15.7 C8.2,15.6 8.1,15.5 8,15.1 C7.9,14.8 7.8,14.6 7.9,14.5 C8.1,14.2 8.2,13.8 8.3,13.3 C8.4,12.9 8.2,12.6 7.7,12.2 C7.5,12.1 7.3,11.9 7,11.7 C6.8,11.5 6.5,11.3 6.3,11.1 C6,10.9 5.8,10.7 5.7,10.6 C5.1,10.2 4.8,9.9 4.7,9.7 C4.4,8.9 4.3,8.4 4.2,8.4 C3.9,8 3.7,7.5 3.7,7.1 C3.6,6.6 3.7,6.1 3.7,5.6 C3.7,5.4 3.7,5 3.6,4.4 C2.3,5.9 1.6,7.8 1.6,10 C1.6,12.4 2.4,14.4 4.1,16.1 C5.3,17.4 7,18.3 8.9,18.5 L8.9,18.5 L8.9,18.5 Z M16.1,16.1 C17.2,15 18,13.7 18.4,12.2 L17.4,12 C16.7,11.2 16.4,10.5 16.3,9.8 L16.3,8.5 C16.3,7.9 16.3,7.4 16.2,7.1 C16.1,6.8 15.9,6.4 15.6,5.9 C15.2,5.4 15,5.1 15,4.9 C14.9,4.7 14.8,4.3 14.5,3.9 L14,2.9 L14.2,2.9 C14.3,2.9 14.3,3 14.4,3 C14.7,2.9 14.9,2.9 15.1,2.9 C14.1,2.2 12.9,1.7 11.4,1.5 L11.4,1.9 L11.6,2.3 L10.8,3 L10.4,2.9 L9.9,2.4 L9.4,1.8 L8.7,1.6 C8,1.7 7.3,1.9 6.5,2.2 L6.5,2.5 C6.6,2.4 6.8,2.4 7,2.3 C7.3,2.2 7.4,2.2 7.6,2.1 C7.7,2.1 7.9,2.2 8.4,2.5 L7.9,3 C7.6,3.3 7.4,3.5 7.4,3.6 C7.4,3.6 7.5,3.7 7.6,3.8 C7.6,3.9 7.7,4 7.7,4 L7.7,4.4 L7.7,4.8 C8.4,4.1 8.7,3.8 8.8,3.8 C9.1,3.7 9.4,3.9 9.9,4.2 C10.4,4.5 10.6,4.8 10.6,5 C10.6,5.1 10.6,5.2 10.4,5.4 C10.2,5.6 10,5.8 9.6,6.1 C9.2,6.4 9,6.6 9,6.6 C8.9,6.7 8.8,6.8 8.6,6.9 C8.4,7 8.2,7.2 8.1,7.3 C8,7.4 8,7.6 8.1,7.7 C8.4,8.3 8.5,8.7 8.3,8.9 C8.2,9 8.2,9 8.1,8.9 C8,8.9 7.9,8.8 7.9,8.7 C7.9,8.6 7.8,8.6 7.7,8.5 C7.6,8.4 7.6,8.3 7.5,8.3 C7.3,8.1 6.7,8 5.7,8 C5.7,9 5.9,9.7 6.4,10.1 C7.7,11.1 8.5,11.6 8.7,11.7 C8.9,11.8 9.3,11.8 9.9,11.7 C10.5,11.6 10.8,11.6 11,11.7 C12.1,12.4 12.8,12.9 13.3,13.1 C13.6,13.2 13.9,13.4 14.3,13.7 C14.7,14 14.7,14.3 14.6,14.5 C14.2,15.1 14,15.5 13.9,15.6 C13.6,16.1 13.3,16.5 12.9,16.8 C12.5,17.1 12.1,17.6 11.9,18.2 C13.4,18.1 14.8,17.3 16.1,16.1 L16.1,16.1 L16.1,16.1 Z" id="Page-1"></path>
        </g>
    </g>
</svg>