<?xml version="1.0" encoding="UTF-8" standalone="no"?>
<svg width="20px" height="20px" viewBox="0 0 20 20" version="1.1" xmlns="http://www.w3.org/2000/svg" xmlns:xlink="http://www.w3.org/1999/xlink">
    <!-- Generator: Sketch 39.1 (31720) - http://www.bohemiancoding.com/sketch -->
    <title>Slice 1</title>
    <desc>Created with Sketch.</desc>
    <defs></defs>
    <g id="Page-1" stroke="none" stroke-width="1" fill="none" fill-rule="evenodd">
        <g id="lifesaver" fill="#FFFFFF">
            <path d="M10,0 C12.8,0 15.1,1 17.1,2.9 C19.1,4.8 20,7.2 20,10 C20,12.8 19,15.1 17.1,17.1 C15.1,19 12.8,20 10,20 C7.2,20 4.9,19 2.9,17.1 C1,15.1 0,12.8 0,10 C0,7.2 1,4.9 2.9,2.9 C4.8,0.9 7.2,0 10,0 L10,0 L10,0 Z M17.9,6.8 C17.4,5.7 16.8,4.7 16,3.9 C15.2,3.1 14.3,2.5 13.1,2 L12.3,4.7 C12.9,5 13.5,5.4 14,5.9 C14.6,6.5 15,7 15.2,7.6 L17.9,6.8 L17.9,6.8 Z M10,14.3 C11.2,14.3 12.2,13.9 13,13.1 C13.8,12.3 14.2,11.3 14.2,10.1 C14.2,8.9 13.8,7.9 13,7.1 C12.2,6.3 11.2,5.9 10,5.9 C8.8,5.9 7.8,6.1 7,7 C6.2,7.8 5.8,8.8 5.8,10 C5.8,11.2 6.2,12.2 7,13 C7.8,13.9 8.8,14.3 10,14.3 L10,14.3 L10,14.3 Z M3.9,3.9 C3.1,4.7 2.5,5.6 2,6.8 L4.7,7.6 C5,7.1 5.4,6.5 5.9,6 C6.5,5.4 7,5 7.6,4.8 L6.8,2.1 C5.7,2.5 4.7,3.2 3.9,3.9 L3.9,3.9 L3.9,3.9 Z M2.1,13.2 C2.6,14.3 3.2,15.3 4,16.1 C4.8,16.9 5.7,17.5 6.9,18 L7.7,15.3 C7.1,15 6.5,14.6 6,14.1 C5.4,13.5 5,13 4.8,12.4 L2.1,13.2 L2.1,13.2 Z M16.1,16.1 C16.9,15.3 17.5,14.4 18,13.2 L15.3,12.4 C15,13 14.6,13.6 14.1,14.1 C13.5,14.7 13,15.1 12.4,15.3 L13.2,18 C14.3,17.5 15.3,16.8 16.1,16.1 L16.1,16.1 L16.1,16.1 Z" id="Page-1"></path>
        </g>
    </g>
</svg>