<?xml version="1.0" encoding="UTF-8" standalone="no"?>
<svg width="18px" height="21px" viewBox="0 0 18 21" version="1.1" xmlns="http://www.w3.org/2000/svg" xmlns:xlink="http://www.w3.org/1999/xlink">
    <!-- Generator: Sketch 39.1 (31720) - http://www.bohemiancoding.com/sketch -->
    <title>Slice 1</title>
    <desc>Created with Sketch.</desc>
    <defs></defs>
    <g id="Page-1" stroke="none" stroke-width="1" fill="none" fill-rule="evenodd">
        <g id="pacman" fill="#FFFFFF">
            <path d="M10.2,10.4 L17.5,17.5 C16.6,18.3 15.5,18.9 14.3,19.4 C13.1,19.9 11.8,20.1 10.5,20.1 C9.1,20.1 7.7,19.8 6.4,19.3 C5.1,18.7 4,18 3.1,17.1 C2.2,16.2 1.4,15.1 0.9,13.9 C0.3,12.7 0,11.4 0,10 C0,8.6 0.3,7.3 0.8,6.1 C1.4,4.9 2.1,3.8 3,2.9 C4,2 5.1,1.3 6.4,0.8 C7.7,0.3 9,0 10.5,0 C12,0 13.4,0.3 14.6,0.8 C15.8,1.3 17,2.1 18,3 L10.2,10.4 L10.2,10.4 Z M10.9,3.3 C10.5,3.3 10.2,3.4 10,3.7 C9.7,3.9 9.6,4.2 9.6,4.6 C9.6,5 9.7,5.2 10,5.5 C10.3,5.7 10.6,5.9 10.9,5.9 C11.2,5.9 11.6,5.8 11.8,5.5 C12.1,5.3 12.2,5 12.2,4.6 C12.2,4.2 12.1,4 11.8,3.7 C11.6,3.4 11.3,3.3 10.9,3.3 L10.9,3.3 Z" id="Combined-Shape"></path>
        </g>
    </g>
</svg>