<?xml version="1.0" encoding="UTF-8" standalone="no"?>
<svg width="21px" height="20px" viewBox="0 0 21 20" version="1.1" xmlns="http://www.w3.org/2000/svg" xmlns:xlink="http://www.w3.org/1999/xlink">
    <!-- Generator: Sketch 39.1 (31720) - http://www.bohemiancoding.com/sketch -->
    <title>Slice 1</title>
    <desc>Created with Sketch.</desc>
    <defs></defs>
    <g id="Page-1" stroke="none" stroke-width="1" fill="none" fill-rule="evenodd">
        <g id="phone" fill="#FFFFFF">
            <path d="M19.9,16.8 C19.8,17.2 19.7,17.5 19.6,17.8 C19.4,18.3 18.8,18.8 17.9,19.3 C17,19.8 16.1,20 15.3,20 L14.6,20 C14.4,20 14.1,19.9 13.8,19.8 C13.5,19.7 13.3,19.6 13.1,19.6 C13,19.5 12.7,19.5 12.3,19.3 C11.9,19.2 11.7,19.1 11.6,19 C10.7,18.7 9.8,18.3 9.1,17.8 C7.9,17.1 6.6,16 5.3,14.7 C4,13.4 2.9,12.2 2.2,11 C1.7,10.3 1.3,9.5 1,8.5 C1,8.4 0.9,8.2 0.7,7.8 C0.6,7.5 0.5,7.2 0.4,7.1 C0.4,6.9 0.3,6.7 0.2,6.4 C0.1,6.1 0.1,5.8 0,5.6 L0,4.9 C0,4 0.2,3.1 0.7,2.3 C1.2,1.3 1.7,0.8 2.2,0.6 C2.4,0.5 2.8,0.4 3.2,0.3 C3.6,0 3.9,0 4.2,0 L4.5,0 C4.7,0.1 4.9,0.4 5.3,1.1 C5.4,1.3 5.5,1.5 5.7,1.9 C5.9,2.2 6,2.5 6.2,2.8 C6.4,3.1 6.5,3.3 6.6,3.6 C6.6,3.6 6.7,3.8 6.8,4 C7,4.1 7.1,4.3 7.2,4.4 C7.3,4.5 7.3,4.7 7.3,4.8 C7.3,5 7.2,5.2 6.9,5.5 C6.6,5.8 6.3,6.1 6,6.3 C5.7,6.5 5.4,6.8 5.1,7.1 C4.8,7.3 4.7,7.5 4.7,7.7 C4.7,7.8 4.7,7.9 4.8,8 C4.8,8.1 4.9,8.2 4.9,8.3 C4.9,8.4 5,8.5 5.1,8.6 C5.2,8.8 5.3,8.9 5.3,8.9 C6,10.2 6.8,11.3 7.8,12.2 C8.7,13.1 9.8,14 11.1,14.7 C11.1,14.7 11.2,14.8 11.4,14.9 C11.6,15 11.7,15.1 11.7,15.1 C11.8,15.1 11.9,15.2 12,15.2 C12.1,15.2 12.2,15.3 12.3,15.3 C12.5,15.3 12.7,15.2 13,14.9 C13.3,14.6 13.5,14.3 13.8,14 C14,13.7 14.3,13.4 14.6,13.1 C14.9,12.8 15.1,12.7 15.3,12.7 C15.4,12.7 15.6,12.7 15.7,12.8 C15.8,12.9 16,13 16.2,13.1 C16.4,13.2 16.5,13.3 16.6,13.3 C16.8,13.4 17.1,13.6 17.4,13.7 C17.7,13.9 18,14 18.3,14.2 C18.6,14.4 18.9,14.5 19.1,14.6 C19.8,14.9 20.1,15.2 20.2,15.4 L20.2,15.7 C20,16.1 20,16.4 19.9,16.8 L19.9,16.8 Z" id="Page-1"></path>
        </g>
    </g>
</svg>