<?xml version="1.0" encoding="utf-8"?>
<!-- Generator: Adobe Illustrator 19.0.0, SVG Export Plug-In . SVG Version: 6.00 Build 0)  -->
<svg version="1.1" id="Layer_1" xmlns="http://www.w3.org/2000/svg" xmlns:xlink="http://www.w3.org/1999/xlink" x="0px" y="0px"
	 width="18px" height="20px" viewBox="0 20 18 20" style="enable-background:new 0 20 18 20;" xml:space="preserve">
<path id="Page-1" d="M18,36.6c0,1-0.3,1.9-0.9,2.5c-0.6,0.6-1.4,0.9-2.5,0.9H3.4c-1,0-1.9-0.3-2.5-0.9C0.3,38.5,0,37.7,0,36.6
	c0-0.5,0-0.9,0-1.3c0-0.4,0.1-0.9,0.2-1.4c0.1-0.5,0.2-1,0.3-1.4c0.1-0.4,0.3-0.9,0.5-1.3c0.2-0.4,0.5-0.8,0.8-1.1
	c0.3-0.3,0.7-0.5,1.1-0.7c0.4-0.2,0.9-0.3,1.4-0.3c0.1,0,0.3,0.1,0.5,0.3c0.3,0.2,0.6,0.4,1,0.6c0.4,0.2,0.8,0.4,1.4,0.6
	C7.9,30.9,8.4,31,9,31s1.1-0.1,1.7-0.3c0.6-0.2,1-0.4,1.4-0.6c0.4-0.2,0.7-0.4,1-0.6c0.3-0.2,0.5-0.3,0.5-0.3c0.5,0,1,0.1,1.4,0.3
	c0.4,0.2,0.8,0.4,1.1,0.7c0.3,0.3,0.6,0.6,0.8,1.1c0.2,0.4,0.4,0.8,0.5,1.3c0.1,0.4,0.2,0.9,0.3,1.4c0.1,0.5,0.1,1,0.2,1.4
	C18,35.7,18,36.2,18,36.6L18,36.6z M13.9,25c0,1.4-0.5,2.6-1.4,3.5c-1,1-2.1,1.5-3.5,1.5s-2.5-0.5-3.5-1.5c-1-1-1.4-2.2-1.4-3.5
	c0-1.4,0.5-2.6,1.4-3.5c1-1,2.1-1.5,3.5-1.5s2.5,0.5,3.5,1.5S13.9,23.6,13.9,25L13.9,25z"/>
</svg>
