<?xml version="1.0" encoding="utf-8"?>
<!-- Generator: Adobe Illustrator 19.0.0, SVG Export Plug-In . SVG Version: 6.00 Build 0)  -->
<svg version="1.1" id="Layer_1" xmlns="http://www.w3.org/2000/svg" xmlns:xlink="http://www.w3.org/1999/xlink" x="0px" y="0px"
	 width="20px" height="18px" viewBox="0 20 20 18" style="enable-background:new 0 20 20 18;" xml:space="preserve">
<path id="Page-1" d="M20,27.5c0,1.4-0.4,2.6-1.3,3.8c-0.9,1.2-2.1,2.1-3.6,2.7c-1.5,0.7-3.2,1-5,1c-0.5,0-1.1,0-1.6-0.1
	c-1.5,1.4-3.2,2.3-5.1,2.8C2.9,37.8,2.5,37.9,2,38c-0.1,0-0.2,0-0.3-0.1c-0.1-0.1-0.2-0.2-0.2-0.3v0c0,0,0-0.1,0-0.1s0-0.1,0-0.1
	c0,0,0-0.1,0.1-0.1c0-0.1,0.1-0.1,0.1-0.1c0,0,0,0,0.1-0.1c0-0.1,0.1-0.1,0.1-0.1c0.1-0.1,0.2-0.2,0.3-0.4c0.2-0.2,0.3-0.4,0.4-0.4
	c0.1-0.1,0.2-0.2,0.3-0.5C3,35.3,3.1,35.1,3.2,35c0.1-0.2,0.2-0.4,0.3-0.7c0.1-0.3,0.2-0.6,0.3-0.9c-1.2-0.7-2.1-1.6-2.8-2.6
	c-0.7-1-1-2.1-1-3.3c0-1,0.3-2,0.8-2.9c0.5-0.9,1.2-1.7,2.1-2.4c0.9-0.7,2-1.2,3.2-1.6S8.6,20,10,20c1.8,0,3.5,0.3,5,1
	c1.5,0.7,2.7,1.6,3.6,2.7C19.6,24.9,20,26.1,20,27.5L20,27.5z"/>
</svg>
