<?xml version="1.0" encoding="utf-8"?>
<!-- Generator: Adobe Illustrator 19.0.0, SVG Export Plug-In . SVG Version: 6.00 Build 0)  -->
<svg version="1.1" id="Layer_1" xmlns="http://www.w3.org/2000/svg" xmlns:xlink="http://www.w3.org/1999/xlink" x="0px" y="0px"
	 width="20px" height="16px" viewBox="0 19 20 16" style="enable-background:new 0 19 20 16;" xml:space="preserve">
<path id="Page-1" d="M20,24.2v9c0,0.5-0.2,0.9-0.5,1.3c-0.3,0.4-0.8,0.5-1.3,0.5H1.8c-0.5,0-0.9-0.2-1.3-0.5C0.2,34.1,0,33.7,0,33.2
	v-9c0.3,0.4,0.7,0.7,1.1,1c2.7,1.9,4.5,3.2,5.5,3.9c0.4,0.3,0.8,0.6,1,0.7C8,30,8.3,30.2,8.8,30.4c0.4,0.2,0.8,0.3,1.2,0.3h0h0
	c0.4,0,0.8-0.1,1.2-0.3c0.4-0.2,0.8-0.4,1.1-0.5c0.3-0.2,0.6-0.4,1-0.7c1.3-0.9,3.1-2.2,5.6-3.9C19.3,24.9,19.7,24.5,20,24.2
	L20,24.2z M20,20.8c0,0.6-0.2,1.2-0.5,1.7c-0.4,0.5-0.8,1-1.4,1.4c-2.8,2-4.5,3.2-5.2,3.7c-0.1,0.1-0.2,0.2-0.5,0.3
	c-0.2,0.2-0.4,0.3-0.6,0.4c-0.2,0.1-0.4,0.2-0.6,0.4c-0.2,0.1-0.4,0.2-0.6,0.3s-0.4,0.1-0.6,0.1h0h0c-0.2,0-0.4,0-0.6-0.1
	S9,28.9,8.8,28.8c-0.2-0.1-0.4-0.3-0.6-0.4C8,28.3,7.8,28.1,7.6,28c-0.2-0.2-0.4-0.3-0.5-0.3c-0.7-0.5-1.7-1.2-2.9-2.1
	c-1.3-0.9-2-1.4-2.3-1.6c-0.5-0.3-0.9-0.8-1.3-1.3S0,21.5,0,21.1c0-0.6,0.2-1.1,0.5-1.5C0.8,19.2,1.2,19,1.8,19h16.4
	c0.5,0,0.9,0.2,1.3,0.5C19.8,19.9,20,20.3,20,20.8L20,20.8z"/>
</svg>
