<?xml version="1.0" encoding="utf-8"?>
<!-- Generator: Adobe Illustrator 19.0.0, SVG Export Plug-In . SVG Version: 6.00 Build 0)  -->
<svg version="1.1" id="Layer_1" xmlns="http://www.w3.org/2000/svg" xmlns:xlink="http://www.w3.org/1999/xlink" x="0px" y="0px"
	 width="20px" height="20px" viewBox="0 20 20 20" style="enable-background:new 0 20 20 20;" xml:space="preserve">
<path id="Page-1" d="M10,20c2.8,0,5.1,1,7.1,2.9S20,27.2,20,30s-1,5.1-2.9,7.1S12.8,40,10,40s-5.1-1-7.1-2.9S0,32.8,0,30
	s1-5.1,2.9-7.1S7.2,20,10,20L10,20z M8.9,38.5C9,38.4,9.1,38.2,9.2,38c0.1-0.2,0.2-0.4,0.3-0.5c0.1-0.1,0.1-0.3,0.1-0.4
	c0-0.1-0.1-0.3-0.2-0.4c-0.5-0.4-0.9-0.8-1.1-1c-0.1-0.1-0.2-0.2-0.3-0.6c-0.1-0.3-0.2-0.5-0.1-0.6c0.2-0.3,0.3-0.7,0.4-1.2
	c0.1-0.4-0.1-0.7-0.6-1.1c-0.2-0.1-0.4-0.3-0.7-0.5c-0.2-0.2-0.5-0.4-0.7-0.6c-0.3-0.2-0.5-0.4-0.6-0.5c-0.6-0.4-0.9-0.7-1-0.9
	c-0.3-0.8-0.4-1.3-0.5-1.3c-0.3-0.4-0.5-0.9-0.5-1.3c-0.1-0.5,0-1,0-1.5c0-0.2,0-0.6-0.1-1.2c-1.3,1.5-2,3.4-2,5.6
	c0,2.4,0.8,4.4,2.5,6.1C5.3,37.4,7,38.3,8.9,38.5L8.9,38.5z M16.1,36.1c1.1-1.1,1.9-2.4,2.3-3.9L17.4,32c-0.7-0.8-1-1.5-1.1-2.2
	c0-0.3,0-0.7,0-1.3s0-1.1-0.1-1.4c-0.1-0.3-0.3-0.7-0.6-1.2c-0.4-0.5-0.6-0.8-0.6-1c-0.1-0.2-0.2-0.6-0.5-1c-0.2-0.4-0.4-0.8-0.5-1
	c0,0,0.1,0,0.2,0c0.1,0,0.1,0.1,0.2,0.1c0.3-0.1,0.5-0.1,0.7-0.1c-1-0.7-2.2-1.2-3.7-1.4v0.4l0.2,0.4L10.8,23l-0.4-0.1l-0.5-0.5
	l-0.5-0.6l-0.7-0.2c-0.7,0.1-1.4,0.3-2.2,0.6v0.3c0.1-0.1,0.3-0.1,0.5-0.2c0.3-0.1,0.4-0.1,0.6-0.2c0.1,0,0.3,0.1,0.8,0.4
	c0,0-0.2,0.2-0.5,0.5c-0.3,0.3-0.5,0.5-0.5,0.6c0,0,0.1,0.1,0.2,0.2C7.6,23.9,7.7,24,7.7,24c0,0.1,0,0.2,0,0.4c0,0.2,0,0.3,0,0.4
	c0.7-0.7,1-1,1.1-1c0.3-0.1,0.6,0.1,1.1,0.4s0.7,0.6,0.7,0.8c0,0.1,0,0.2-0.2,0.4c-0.2,0.2-0.4,0.4-0.8,0.7
	c-0.4,0.3-0.6,0.5-0.6,0.5c-0.1,0.1-0.2,0.2-0.4,0.3c-0.2,0.1-0.4,0.3-0.5,0.4c-0.1,0.1-0.1,0.3,0,0.4c0.3,0.6,0.4,1,0.2,1.2
	c-0.1,0.1-0.1,0.1-0.2,0c-0.1,0-0.2-0.1-0.2-0.2c0-0.1-0.1-0.1-0.2-0.2c-0.1-0.1-0.1-0.2-0.2-0.2c-0.2-0.2-0.8-0.3-1.8-0.3
	c0,1,0.2,1.7,0.7,2.1c1.3,1,2.1,1.5,2.3,1.6c0.2,0.1,0.6,0.1,1.2,0c0.6-0.1,0.9-0.1,1.1,0c1.1,0.7,1.8,1.2,2.3,1.4
	c0.3,0.1,0.6,0.3,1,0.6s0.4,0.6,0.3,0.8c-0.4,0.6-0.6,1-0.7,1.1c-0.3,0.5-0.6,0.9-1,1.2c-0.4,0.3-0.8,0.8-1,1.4
	C13.4,38.1,14.8,37.3,16.1,36.1L16.1,36.1z"/>
</svg>
