<?xml version="1.0" encoding="utf-8"?>
<!-- Generator: Adobe Illustrator 19.0.0, SVG Export Plug-In . SVG Version: 6.00 Build 0)  -->
<svg version="1.1" id="Layer_1" xmlns="http://www.w3.org/2000/svg" xmlns:xlink="http://www.w3.org/1999/xlink" x="0px" y="0px"
	 width="20px" height="20px" viewBox="0 20 20 20" style="enable-background:new 0 20 20 20;" xml:space="preserve">
<path id="Page-1" d="M10,20c2.8,0,5.1,1,7.1,2.9S20,27.2,20,30s-1,5.1-2.9,7.1C15.1,39,12.8,40,10,40s-5.1-1-7.1-2.9
	C1,35.1,0,32.8,0,30s1-5.1,2.9-7.1S7.2,20,10,20L10,20z M17.9,26.8c-0.5-1.1-1.1-2.1-1.9-2.9c-0.8-0.8-1.7-1.4-2.9-1.9l-0.8,2.7
	c0.6,0.3,1.2,0.7,1.7,1.2c0.6,0.6,1,1.1,1.2,1.7L17.9,26.8z M10,34.3c1.2,0,2.2-0.4,3-1.2c0.8-0.8,1.2-1.8,1.2-3s-0.4-2.2-1.2-3
	c-0.8-0.8-1.8-1.2-3-1.2S7.8,26.1,7,27c-0.8,0.8-1.2,1.8-1.2,3s0.4,2.2,1.2,3C7.8,33.9,8.8,34.3,10,34.3L10,34.3z M3.9,23.9
	c-0.8,0.8-1.4,1.7-1.9,2.9l2.7,0.8C5,27.1,5.4,26.5,5.9,26c0.6-0.6,1.1-1,1.7-1.2l-0.8-2.7C5.7,22.5,4.7,23.2,3.9,23.9L3.9,23.9z
	 M2.1,33.2c0.5,1.1,1.1,2.1,1.9,2.9c0.8,0.8,1.7,1.4,2.9,1.9l0.8-2.7C7.1,35,6.5,34.6,6,34.1c-0.6-0.6-1-1.1-1.2-1.7L2.1,33.2z
	 M16.1,36.1c0.8-0.8,1.4-1.7,1.9-2.9l-2.7-0.8c-0.3,0.6-0.7,1.2-1.2,1.7c-0.6,0.6-1.1,1-1.7,1.2l0.8,2.7
	C14.3,37.5,15.3,36.8,16.1,36.1L16.1,36.1z"/>
</svg>
