<?xml version="1.0" encoding="utf-8"?>
<!-- Generator: Adobe Illustrator 19.0.0, SVG Export Plug-In . SVG Version: 6.00 Build 0)  -->
<svg version="1.1" id="Layer_1" xmlns="http://www.w3.org/2000/svg" xmlns:xlink="http://www.w3.org/1999/xlink" x="0px" y="0px"
	 width="18px" height="20px" viewBox="0 20 18 20" style="enable-background:new 0 20 18 20;" xml:space="preserve">
<path id="Combined-Shape" d="M10.2,30.4l7.3,7.1c-0.9,0.8-2,1.4-3.2,1.9c-1.2,0.5-2.5,0.7-3.8,0.7c-1.4,0-2.8-0.3-4.1-0.8
	C5.1,38.7,4,38,3.1,37.1s-1.7-2-2.2-3.2C0.3,32.7,0,31.4,0,30s0.3-2.7,0.8-3.9c0.6-1.2,1.3-2.3,2.2-3.2C4,22,5.1,21.3,6.4,20.8
	C7.7,20.3,9,20,10.5,20c1.5,0,2.9,0.3,4.1,0.8S17,22.1,18,23L10.2,30.4z M10.9,23.3c-0.4,0-0.7,0.1-0.9,0.4
	c-0.3,0.2-0.4,0.5-0.4,0.9s0.1,0.6,0.4,0.9c0.3,0.2,0.6,0.4,0.9,0.4c0.3,0,0.7-0.1,0.9-0.4c0.3-0.2,0.4-0.5,0.4-0.9
	s-0.1-0.6-0.4-0.9C11.6,23.4,11.3,23.3,10.9,23.3z"/>
</svg>
