<?xml version="1.0" encoding="utf-8"?>
<!-- Generator: Adobe Illustrator 19.0.0, SVG Export Plug-In . SVG Version: 6.00 Build 0)  -->
<svg version="1.1" id="Layer_1" xmlns="http://www.w3.org/2000/svg" xmlns:xlink="http://www.w3.org/1999/xlink" x="0px" y="0px"
	 width="20px" height="14px" viewBox="23 31 20 14" style="enable-background:new 23 31 20 14;" xml:space="preserve">
<path d="M42.2,31H23v14h20V31H42.2z M41.4,31.9l-7.7,8.4c-0.2,0.2-0.4,0.3-0.7,0.3s-0.5-0.1-0.7-0.3l-7.7-8.4H41.4z M23.8,32.2
	l5.2,5.7l-5.2,5.7V32.2z M24.4,44.1l5.2-5.6l2.2,2.4c0.2,0.2,0.3,0.4,0.6,0.4s0.4,0.1,0.7,0.1s0.4,0,0.7-0.1s0.4-0.2,0.6-0.4
	l2.2-2.4l5.2,5.6H24.4z M42.2,43.6L37,37.9l5.2-5.7V43.6z"/>
</svg>
