<?xml version="1.0" encoding="utf-8"?>
<!-- Generator: Adobe Illustrator 19.0.0, SVG Export Plug-In . SVG Version: 6.00 Build 0)  -->
<svg version="1.1" id="Layer_1" xmlns="http://www.w3.org/2000/svg" xmlns:xlink="http://www.w3.org/1999/xlink" x="0px" y="0px"
	 width="50px" height="50px" viewBox="123 143 50 50" style="enable-background:new 123 143 50 50;" xml:space="preserve">
<style type="text/css">
	.st0{fill:#485A96;}
	.st1{fill:#FFFFFF;}
</style>
<path id="Blue_1_" class="st0" d="M170.2,193c1.5,0,2.8-1.2,2.8-2.8v-44.5c0-1.5-1.2-2.8-2.8-2.8h-44.5c-1.5,0-2.8,1.2-2.8,2.8v44.5
	c0,1.5,1.2,2.8,2.8,2.8L170.2,193L170.2,193z"/>
<path id="f" class="st1" d="M157.5,193v-19.4h6.5l1-7.5h-7.5v-4.8c0-2.2,0.6-3.7,3.7-3.7l4,0v-6.7c-0.7-0.1-3.1-0.3-5.8-0.3
	c-5.8,0-9.7,3.5-9.7,10v5.6h-6.5v7.5h6.5V193L157.5,193L157.5,193z"/>
</svg>
