<?xml version="1.0" encoding="utf-8"?>
<!-- Generator: Adobe Illustrator 19.0.0, SVG Export Plug-In . SVG Version: 6.00 Build 0)  -->
<svg version="1.1" id="Layer_1" xmlns="http://www.w3.org/2000/svg" xmlns:xlink="http://www.w3.org/1999/xlink" x="0px" y="0px"
	 width="50px" height="26px" viewBox="0 0 50 26" style="enable-background:new 0 0 50 26;" xml:space="preserve">
<polygon style="fill:#EB1478;" points="0,26 26.141,26 26.141,22.721 24.492,22.721 24.492,24.361 1.648,24.361 1.648,1.639 
	24.492,1.639 24.492,14.977 26.141,14.977 26.141,0 0,0 "/>
<rect x="5.744" y="15.78" style="fill:#EB1478;" width="1.649" height="6.136"/>
<polygon style="fill:#EB1478;" points="11.607,18.621 9.942,15.78 8.21,15.78 8.21,21.917 9.775,21.917 9.775,18.729 9.8,18.729 
	11.69,21.917 13.205,21.917 13.205,15.78 11.632,15.78 11.632,18.621 "/>
<path style="fill:#EB1478;" d="M14.028,15.78v6.136h2.073c1.957,0,2.88-0.489,2.88-3.072c0-2.534-0.94-3.064-2.905-3.064H14.028z
	 M17.308,18.853c0,1.549-0.441,1.648-1.057,1.648h-0.575v-3.229h0.508C16.884,17.271,17.308,17.313,17.308,18.853z"/>
<rect x="19.572" y="15.78" style="fill:#EB1478;" width="1.648" height="6.136"/>
<path style="fill:#EB1478;" d="M34.84,15.706c-2.298,0-2.706,1.499-2.706,3.147c0,1.64,0.408,3.139,2.706,3.139
	c2.29,0,2.698-1.499,2.698-3.139C37.538,17.205,37.138,15.706,34.84,15.706z M34.84,20.542c-0.907,0-1.032-0.621-1.032-1.631
	c0-1.002,0.125-1.623,1.032-1.623c0.899,0,1.024,0.621,1.024,1.623C35.864,19.921,35.739,20.542,34.84,20.542z"/>
<path style="fill:#EB1478;" d="M46.395,15.706c-2.298,0-2.706,1.499-2.706,3.147c0,1.64,0.408,3.139,2.706,3.139
	c2.289,0,2.697-1.499,2.697-3.139C49.092,17.205,48.693,15.706,46.395,15.706z M46.395,20.542c-0.908,0-1.033-0.621-1.033-1.631
	c0-1.002,0.125-1.623,1.033-1.623c0.898,0,1.024,0.621,1.024,1.623C47.419,19.921,47.294,20.542,46.395,20.542z"/>
<path style="fill:#EB1478;" d="M49.624,20.946c-0.301,0-0.374,0.202-0.374,0.467c0,0.263,0.074,0.464,0.374,0.464
	c0.299,0,0.376-0.201,0.376-0.464C50,21.148,49.923,20.946,49.624,20.946z M49.624,21.811c-0.246,0-0.303-0.173-0.303-0.398
	c0-0.227,0.057-0.399,0.303-0.399c0.246,0,0.304,0.173,0.304,0.399C49.928,21.638,49.871,21.811,49.624,21.811z"/>
<path style="fill:#EB1478;" d="M49.831,21.307c0-0.111-0.037-0.175-0.181-0.175h-0.213v0.555h0.115v-0.196h0.073l0.086,0.196h0.117
	l-0.094-0.207C49.809,21.455,49.831,21.394,49.831,21.307z M49.645,21.399h-0.094v-0.168h0.094c0.055,0,0.074,0.023,0.074,0.084
	C49.719,21.376,49.701,21.399,49.645,21.399z"/>
<path style="fill:#EB1478;" d="M28.973,19.549h1.064v0.107c0,0.678,0.021,0.977-0.791,0.977c-0.758,0-1.016-0.348-1.016-1.731
	c0-1.441,0.433-1.615,1.082-1.615c0.483,0,0.824,0.124,1.107,0.282l0.882-1.367c-0.467-0.298-1.149-0.497-1.915-0.497
	c-2.131,0-2.814,1.019-2.814,3.147c0,1.855,0.499,3.139,2.523,3.139c0.358,0,0.666-0.024,0.932-0.074h1.516V19.35v-1.134h-2.388
	L28.973,19.549z"/>
<path style="fill:#EB1478;" d="M40.528,19.549h1.064v0.107c0,0.678,0.021,0.977-0.791,0.977c-0.758,0-1.016-0.348-1.016-1.731
	c0-1.441,0.433-1.615,1.082-1.615c0.483,0,0.824,0.124,1.107,0.282l0.882-1.367c-0.467-0.298-1.149-0.497-1.915-0.497
	c-2.131,0-2.814,1.019-2.814,3.147c0,1.855,0.499,3.139,2.523,3.139c0.358,0,0.666-0.024,0.932-0.074h1.516V19.35v-1.134H40.71
	L40.528,19.549z"/>
<polygon style="fill:#EB1478;" points="26.139,17.279 26.139,15.78 22.043,15.78 22.043,21.917 26.139,21.917 26.139,20.459 
	23.659,20.459 23.659,19.54 25.288,19.54 25.487,18.083 23.659,18.083 23.659,17.279 "/>
</svg>
