<?xml version="1.0" encoding="utf-8"?>
<!-- Generator: Adobe Illustrator 19.0.0, SVG Export Plug-In . SVG Version: 6.00 Build 0)  -->
<svg version="1.1" id="Layer_1" xmlns="http://www.w3.org/2000/svg" xmlns:xlink="http://www.w3.org/1999/xlink" x="0px" y="0px"
	 width="50px" height="50px" viewBox="0 0 50 50" style="enable-background:new 0 0 50 50;" xml:space="preserve">
<path id="Base_2_" style="fill:#151C0E;" d="M47.006,50H2.994C1.341,50,0,48.66,0,47.006V2.994C0,1.341,1.341,0,2.994,0h44.012
	C48.659,0,50,1.341,50,2.994v44.012C50,48.66,48.659,50,47.006,50z"/>
<path id="K_2_" style="fill:#2EDE73;" d="M22.883,20.642l5.009-7.256c0.947-1.367,2.169-2.051,3.668-2.051
	c1.223,0,2.28,0.434,3.175,1.301c0.894,0.867,1.341,1.906,1.341,3.116c0,0.894-0.236,1.683-0.71,2.366l-4.516,6.566l5.521,7
	c0.552,0.697,0.828,1.512,0.828,2.445c0,1.236-0.433,2.297-1.301,3.185c-0.868,0.888-1.92,1.331-3.155,1.331
	c-1.354,0-2.386-0.44-3.096-1.321l-6.763-8.439v4.654c0,1.327-0.23,2.359-0.69,3.096c-0.841,1.34-2.064,2.011-3.668,2.011
	c-1.459,0-2.59-0.493-3.392-1.479c-0.749-0.907-1.124-2.11-1.124-3.608V16.304c0-1.419,0.381-2.589,1.144-3.51
	c0.802-0.973,1.906-1.459,3.313-1.459c1.341,0,2.458,0.487,3.352,1.459c0.499,0.539,0.815,1.084,0.946,1.637
	c0.079,0.342,0.119,0.979,0.119,1.913V20.642z"/>
</svg>
