<?xml version="1.0" encoding="utf-8"?>
<!-- Generator: Adobe Illustrator 19.0.0, SVG Export Plug-In . SVG Version: 6.00 Build 0)  -->
<svg version="1.1" id="Layer_1" xmlns:sketch="http://www.bohemiancoding.com/sketch/ns"
	 xmlns="http://www.w3.org/2000/svg" xmlns:xlink="http://www.w3.org/1999/xlink" x="0px" y="0px" width="50px" height="25px"
	 viewBox="130 80 50 25" style="enable-background:new 130 80 50 25;" xml:space="preserve">
<style type="text/css">
	.st0{fill:#3DB4E7;}
	.st1{fill:#82BC23;}
</style>
<path id="Shape" sketch:type="MSShapeGroup" class="st0" d="M177.1,92.2c1.6,0,2.9,1.3,2.9,2.9c0,1.6-1.3,2.9-2.9,2.9
	c-1.6,0-2.9-1.3-2.9-2.9C174.2,93.5,175.5,92.2,177.1,92.2L177.1,92.2z"/>
<path class="st1" d="M153.9,102.4l0-13l0,0c0,0,0-0.1,0-0.1c0-1.4-1.2-2.6-2.6-2.6c-1.4,0-2.6,1.2-2.6,2.6c0,0,0,0,0,0.1l0,0l0,13h0
	c0,1.4,1.2,2.6,2.6,2.6C152.8,105,153.9,103.9,153.9,102.4L153.9,102.4z"/>
<path class="st1" d="M145.2,101L145.2,101l-4.7-6.4l3.4-3.3l0,0c0.4-0.5,0.7-1.1,0.7-1.8c0-1.4-1.2-2.6-2.6-2.6
	c-0.8,0-1.5,0.3-1.9,0.9l0,0l-4.8,4.7l0-9.6l0,0c0,0,0-0.1,0-0.1c0-1.4-1.1-2.6-2.6-2.6c-1.4,0-2.6,1.2-2.6,2.6c0,0,0,0.1,0,0.1
	l-0.1,0l0,19.7l0.1,0c0,0,0,0,0,0.1c0,1.4,1.1,2.6,2.5,2.6c1.4,0,2.5-1.1,2.5-2.4l0,0l0-3.4l1.3-1.2l4.3,5.7
	c0.4,0.8,1.3,1.3,2.2,1.3c1.4,0,2.6-1.2,2.6-2.6C145.6,101.9,145.5,101.4,145.2,101z"/>
<path class="st1" d="M172.8,101L172.8,101l-4.7-6.4l3.4-3.3l0,0c0.4-0.5,0.7-1.1,0.7-1.8c0-1.4-1.2-2.6-2.6-2.6
	c-0.8,0-1.5,0.3-1.9,0.9l0,0l-4.8,4.7l0-9.6l0,0c0,0,0-0.1,0-0.1c0-1.4-1.1-2.6-2.6-2.6s-2.6,1.2-2.6,2.6c0,0,0,0.1,0,0.1l-0.1,0
	l0,19.7l0.1,0c0,0,0,0,0,0.1c0,1.4,1.1,2.6,2.5,2.6c1.4,0,2.5-1.1,2.5-2.4l0,0l0-3.4l1.3-1.2l4.3,5.7c0.4,0.8,1.3,1.3,2.2,1.3
	c1.4,0,2.6-1.2,2.6-2.6C173.2,101.9,173,101.4,172.8,101z"/>
</svg>
