<?xml version="1.0" encoding="utf-8"?><!-- Generator: Adobe Illustrator 19.1.0, SVG Export Plug-In . SVG Version: 6.00 Build 0) --><svg version="1.1" id="primary_Logo" xmlns="http://www.w3.org/2000/svg" xmlns:xlink="http://www.w3.org/1999/xlink" x="0px" y="0px" viewBox="0 0 290.7 250.2" style="enable-background:new 0 0 290.7 250.2;" xml:space="preserve"><style type="text/css">.st0{fill:#2FFC8D;}	.st1{fill:#03E370;}	.st2{fill:#10C767;}	.st3{fill:#00AB6C;}</style><g id="XMLID_98_"><g id="XMLID_99_"><path id="XMLID_103_" class="st0" d="M196.5,0.3c-1.5-0.7-2.7,0-2.7,1.7v202.9l88.9,44.4c4.4,2.2,8,0,8-5V49c0-1-0.5-1.9-1.4-2.3	L196.5,0.3z"/><path id="XMLID_102_" class="st1" d="M96.9,156.5L192.2,1.6c0.9-1.4,2.8-2,4.3-1.2l92.1,46c1.1,0.6,1.6,2,0.9,3.1l-95.7,155.4	L96.9,156.5z"/><path id="XMLID_101_" class="st2" d="M10.7,4.4c-5.9-3-7.9-0.8-4.4,4.9l90.6,147.2l96.9,48.5L97.5,48.5c-0.4-0.7-1-1.2-1.7-1.6	L10.7,4.4z"/><path id="XMLID_100_" class="st3" d="M96.9,244.4c0,4.9-3.6,7.2-8,5L5.4,207.6c-3-1.5-5.4-5.4-5.4-8.7V5c0-3.3,2.4-4.8,5.4-3.3	l90.3,45.2c0.7,0.4,1.2,1.1,1.2,1.9V244.4z"/></g></g></svg>