<?xml version="1.0" encoding="utf-8"?>
<!-- Generator: Adobe Illustrator 19.0.0, SVG Export Plug-In . SVG Version: 6.00 Build 0)  -->
<svg version="1.1" id="Layer_1" xmlns="http://www.w3.org/2000/svg" xmlns:xlink="http://www.w3.org/1999/xlink" x="0px" y="0px"
	 width="12px" height="20px" viewBox="11 46 12 20" style="enable-background:new 11 46 12 20;" xml:space="preserve">
<path d="M22,46H12c-0.1,0-0.3,0-0.4,0.1c-0.1,0-0.2,0.1-0.3,0.2c-0.1,0.1-0.2,0.2-0.2,0.3S11,46.9,11,47v18c0,0.1,0,0.3,0.1,0.4
	s0.1,0.2,0.2,0.3c0.1,0.1,0.2,0.2,0.3,0.2c0.1,0,0.3,0.1,0.4,0.1h10c0.1,0,0.3,0,0.4-0.1c0.1,0,0.2-0.1,0.3-0.2
	c0.1-0.1,0.2-0.2,0.2-0.3c0-0.1,0.1-0.2,0.1-0.4V47c0-0.1,0-0.3-0.1-0.4c0-0.1-0.1-0.2-0.2-0.3c-0.1-0.1-0.2-0.2-0.3-0.2
	C22.3,46,22.1,46,22,46z M22.2,65c0,0.1,0,0.2-0.1,0.2c0,0-0.1,0.1-0.2,0.1H12c-0.1,0-0.2,0-0.2-0.1c0,0-0.1-0.1-0.1-0.2v-3.4h10.5
	V65z M22.2,60.8H11.8V49h10.5V60.8z M22.2,48.2H11.8V47c0-0.1,0-0.2,0.1-0.2s0.1-0.1,0.2-0.1h10c0.1,0,0.2,0,0.2,0.1
	c0,0,0.1,0.1,0.1,0.2V48.2z M15.9,63.8h2.3V63h-2.3V63.8z"/>
</svg>
