<?xml version="1.0" encoding="utf-8"?>
<!-- Generator: Adobe Illustrator 19.0.0, SVG Export Plug-In . SVG Version: 6.00 Build 0)  -->
<svg version="1.1" id="Layer_1" xmlns="http://www.w3.org/2000/svg" xmlns:xlink="http://www.w3.org/1999/xlink" x="0px" y="0px"
	 width="50px" height="50px" viewBox="118 138 50 50" style="enable-background:new 118 138 50 50;" xml:space="preserve">
<style type="text/css">
	.st0{fill:#DFA22F;}
	.st1{fill:#3CB187;}
	.st2{fill:#CE1E5B;}
	.st3{fill:#392538;}
	.st4{fill:#BB242A;}
	.st5{fill:#72C5CD;}
	.st6{fill:#248C73;}
	.st7{fill:#62803A;}
</style>
<path class="st0" d="M150.4,141.1c-0.8-2.3-3.3-3.6-5.6-2.9c-2.3,0.8-3.6,3.3-2.9,5.6l11.5,35.4c0.8,2.2,3.2,3.4,5.4,2.8
	c2.4-0.7,3.8-3.2,3.1-5.5C161.9,176.4,150.4,141.1,150.4,141.1"/>
<path class="st1" d="M132.6,146.9c-0.8-2.3-3.3-3.6-5.6-2.9c-2.3,0.8-3.6,3.3-2.9,5.6l11.5,35.4c0.8,2.2,3.2,3.4,5.4,2.8
	c2.4-0.7,3.8-3.2,3.1-5.5C144.1,182.2,132.6,146.9,132.6,146.9"/>
<path class="st2" d="M164.9,170.4c2.3-0.8,3.6-3.3,2.9-5.6c-0.8-2.3-3.3-3.6-5.6-2.9l-35.4,11.5c-2.2,0.8-3.4,3.2-2.8,5.4
	c0.7,2.4,3.2,3.8,5.5,3.1C129.6,181.9,164.9,170.4,164.9,170.4"/>
<path class="st3" d="M134.1,180.4c2.3-0.7,5.3-1.7,8.5-2.8c-0.7-2.3-1.7-5.3-2.8-8.5l-8.5,2.8L134.1,180.4"/>
<path class="st4" d="M152,174.6c3.2-1,6.2-2,8.5-2.8c-0.7-2.3-1.7-5.3-2.8-8.5l-8.5,2.8L152,174.6"/>
<path class="st5" d="M159.1,152.6c2.3-0.8,3.6-3.3,2.9-5.6c-0.8-2.3-3.3-3.6-5.6-2.9l-35.4,11.5c-2.2,0.8-3.4,3.2-2.8,5.4
	c0.7,2.4,3.2,3.8,5.5,3.1C123.8,164.1,159.1,152.6,159.1,152.6"/>
<path class="st6" d="M128.3,162.6c2.3-0.7,5.3-1.7,8.5-2.8c-1-3.2-2-6.2-2.8-8.5l-8.5,2.8L128.3,162.6"/>
<path class="st7" d="M146.2,156.8c3.2-1,6.2-2,8.5-2.8c-1-3.2-2-6.2-2.8-8.5l-8.5,2.8L146.2,156.8"/>
</svg>
