<?xml version="1.0" encoding="utf-8"?>
<!-- Generator: Adobe Illustrator 19.0.0, SVG Export Plug-In . SVG Version: 6.00 Build 0)  -->
<svg version="1.1" id="Layer_1" xmlns="http://www.w3.org/2000/svg" xmlns:xlink="http://www.w3.org/1999/xlink" x="0px" y="0px"
	 width="50px" height="50px" viewBox="247 267 50 50" style="enable-background:new 247 267 50 50;" xml:space="preserve">
<style type="text/css">
	.st0{fill:#FFFC00;}
	.st1{fill:#FFFFFF;}
	.st2{fill:#020202;}
</style>
<path class="st0" d="M247,304.3L247,304.3c0,1.1,0,2.2,0.2,3.3c0.2,1.2,0.5,2.3,1,3.4c0.7,1.4,1.7,2.6,3,3.6c0.9,0.7,1.9,1.3,3,1.6
	c1.6,0.5,3.3,0.7,4.9,0.7c1,0,2.1,0,3.1,0c7.6,0,15.2,0.1,22.9,0c1,0,2-0.1,3-0.3c1.9-0.3,3.6-1.2,5-2.4c1.7-1.5,2.8-3.3,3.3-5.5
	c0.3-1.4,0.4-2.9,0.4-4.4V304c0-0.1,0-25,0-25.3c0-0.9-0.1-1.8-0.2-2.7c-0.2-1.1-0.5-2.1-1-3.1c-0.5-1-1.2-2-2.1-2.8
	c-1.3-1.2-2.8-2.1-4.5-2.6c-1.6-0.4-3.2-0.5-4.8-0.5c0,0,0,0,0,0h-24.5c0,0,0,0,0,0c-0.9,0-1.8,0-2.8,0.1c-1,0.1-2,0.3-2.9,0.7
	c-1.5,0.6-2.8,1.4-3.9,2.6c-1.3,1.3-2.1,2.8-2.6,4.6c-0.4,1.6-0.5,3.2-0.5,4.8"/>
<path class="st1" d="M272.2,309.2c-0.1,0-0.2,0-0.3,0c-0.1,0-0.1,0-0.2,0c-2.2,0-3.6-1-4.9-1.9c-0.9-0.7-1.8-1.3-2.8-1.4
	c-0.5-0.1-1-0.1-1.5-0.1c-0.9,0-1.6,0.1-2.1,0.2c-0.3,0.1-0.6,0.1-0.8,0.1c-0.2,0-0.5,0-0.6-0.4c-0.1-0.3-0.1-0.6-0.2-0.8
	c-0.1-0.7-0.3-1.1-0.5-1.1c-2.7-0.4-4.4-1-4.7-1.8c0-0.1-0.1-0.2-0.1-0.2c0-0.2,0.1-0.4,0.4-0.5c2.2-0.4,4.1-1.5,5.7-3.4
	c1.3-1.5,1.9-2.9,2-3c0,0,0,0,0,0c0.3-0.6,0.4-1.2,0.2-1.6c-0.4-0.8-1.5-1.2-2.3-1.4c-0.2-0.1-0.4-0.1-0.5-0.2
	c-0.7-0.3-1.8-0.8-1.7-1.6c0.1-0.6,0.9-1,1.5-1c0.2,0,0.3,0,0.4,0.1c0.7,0.3,1.3,0.5,1.9,0.5c0.7,0,1-0.3,1.1-0.3
	c0-0.4,0-0.7-0.1-1.1c0,0,0,0,0,0c-0.2-2.5-0.4-5.6,0.4-7.4c2.4-5.3,7.4-5.7,8.9-5.7c0,0,0.6,0,0.6,0c0,0,0.1,0,0.1,0
	c1.5,0,6.5,0.4,8.9,5.7c0.8,1.8,0.6,4.9,0.4,7.4l0,0.1c0,0.3,0,0.7-0.1,1c0.1,0.1,0.4,0.3,1,0.3c0.5,0,1.1-0.2,1.8-0.5
	c0.2-0.1,0.4-0.1,0.6-0.1c0.2,0,0.5,0,0.7,0.1l0,0c0.6,0.2,0.9,0.6,0.9,1c0,0.4-0.3,1-1.7,1.5c-0.1,0.1-0.3,0.1-0.5,0.2
	c-0.8,0.2-1.9,0.6-2.3,1.4c-0.2,0.5-0.1,1,0.2,1.6c0,0,0,0,0,0c0.1,0.2,2.5,5.6,7.7,6.5c0.2,0,0.4,0.2,0.4,0.5c0,0.1,0,0.2-0.1,0.2
	c-0.3,0.7-1.9,1.4-4.7,1.8c-0.3,0-0.4,0.5-0.5,1.1c-0.1,0.3-0.1,0.6-0.2,0.8c-0.1,0.3-0.3,0.4-0.5,0.4h0c-0.2,0-0.4,0-0.8-0.1
	c-0.6-0.1-1.2-0.2-2.1-0.2c-0.5,0-1,0-1.5,0.1c-1,0.2-1.9,0.8-2.8,1.4C275.9,308.2,274.4,309.2,272.2,309.2"/>
<path class="st2" d="M272.4,275.3c1.4,0,6.2,0.4,8.5,5.5c0.8,1.7,0.6,4.7,0.4,7.2c0,0.4,0,0.8-0.1,1.1l0,0.2l0.1,0.1
	c0,0,0.4,0.5,1.3,0.5l0,0l0,0c0.6,0,1.2-0.2,1.9-0.5c0.1,0,0.2-0.1,0.4-0.1c0.2,0,0.3,0,0.5,0.1l0,0c0.4,0.1,0.6,0.4,0.6,0.6
	c0,0.1-0.1,0.6-1.4,1.1c-0.1,0.1-0.3,0.1-0.5,0.2c-0.8,0.3-2.1,0.7-2.6,1.7c-0.2,0.6-0.2,1.2,0.2,2c0.2,0.4,2.6,5.8,8,6.7
	c0,0,0,0.1,0,0.1c-0.1,0.2-0.7,1-4.3,1.5c-0.6,0.1-0.7,0.7-0.9,1.5c-0.1,0.3-0.1,0.5-0.2,0.8c0,0.1,0,0.1-0.1,0.1c0,0,0,0,0,0
	c-0.2,0-0.4,0-0.7-0.1c-0.5-0.1-1.2-0.2-2.1-0.2c-0.5,0-1,0-1.6,0.1c-1.1,0.2-2,0.8-3,1.5c-1.3,0.9-2.6,1.9-4.7,1.9
	c-0.1,0-0.2,0-0.3,0l0,0l0,0c-0.1,0-0.1,0-0.2,0c-2,0-3.4-0.9-4.7-1.9c-1-0.7-1.9-1.3-3-1.5c-0.5-0.1-1-0.1-1.6-0.1
	c-0.9,0-1.6,0.1-2.1,0.2c-0.3,0.1-0.5,0.1-0.7,0.1c-0.1,0-0.1,0-0.2-0.1c-0.1-0.3-0.1-0.6-0.2-0.8c-0.2-0.7-0.3-1.4-0.9-1.5
	c-3.7-0.6-4.2-1.3-4.3-1.5c0,0,0-0.1,0-0.1c5.5-0.9,7.9-6.4,8-6.7c0.4-0.8,0.4-1.4,0.2-2c-0.4-1-1.7-1.4-2.6-1.7
	c-0.2-0.1-0.4-0.1-0.5-0.2c-1.1-0.4-1.4-0.9-1.4-1.1c0.1-0.3,0.6-0.6,1.1-0.6c0.1,0,0.2,0,0.3,0c0.8,0.4,1.4,0.5,2,0.5
	c0.9,0,1.4-0.4,1.4-0.5l0.1-0.1l0-0.2c0-0.4,0-0.7-0.1-1.1c-0.2-2.4-0.3-5.5,0.4-7.2c2.3-5.1,7.1-5.5,8.5-5.5
	C271.7,275.3,272.3,275.3,272.4,275.3C272.3,275.3,272.3,275.3,272.4,275.3 M272.4,274.4L272.4,274.4
	C272.3,274.4,272.3,274.4,272.4,274.4c-0.3,0-0.7,0-0.7,0c-0.8,0-2.5,0.1-4.3,0.9c-1,0.5-1.9,1.1-2.7,1.8c-0.9,0.9-1.7,2-2.3,3.3
	c-0.8,1.9-0.6,5-0.5,7.6l0,0c0,0.3,0,0.6,0.1,0.8c-0.1,0.1-0.3,0.1-0.6,0.1c-0.5,0-1-0.2-1.7-0.4c-0.2-0.1-0.4-0.1-0.6-0.1
	c-0.4,0-0.8,0.1-1.1,0.3c-0.4,0.3-0.7,0.6-0.8,1c-0.1,0.3,0,0.8,0.5,1.3c0.3,0.3,0.8,0.6,1.4,0.8c0.2,0.1,0.3,0.1,0.5,0.2
	c0.7,0.2,1.7,0.6,2,1.2c0.1,0.3,0.1,0.8-0.2,1.3c0,0,0,0,0,0c-0.1,0.1-0.7,1.5-1.9,2.9c-0.7,0.8-1.5,1.5-2.3,2
	c-1,0.6-2.1,1.1-3.2,1.2c-0.4,0.1-0.8,0.5-0.7,0.9c0,0.1,0,0.3,0.1,0.4c0,0,0,0,0,0c0.2,0.4,0.6,0.8,1.3,1.1c0.8,0.4,2.1,0.7,3.7,1
	c0.1,0.2,0.2,0.5,0.2,0.8c0.1,0.3,0.1,0.6,0.2,0.9c0.1,0.3,0.4,0.7,1,0.7c0.2,0,0.5-0.1,0.9-0.1c0.5-0.1,1.1-0.2,2-0.2
	c0.5,0,0.9,0,1.4,0.1c0.9,0.2,1.7,0.7,2.6,1.4c1.3,0.9,2.9,2,5.2,2c0.1,0,0.1,0,0.2,0c0.1,0,0.2,0,0.3,0c2.3,0,3.8-1.1,5.2-2l0,0
	c0.9-0.6,1.7-1.2,2.6-1.4c0.5-0.1,1-0.1,1.4-0.1c0.8,0,1.4,0.1,2,0.2c0.4,0.1,0.6,0.1,0.9,0.1l0,0h0c0.5,0,0.8-0.3,1-0.7
	c0.1-0.3,0.2-0.6,0.2-0.9c0.1-0.2,0.1-0.6,0.2-0.8c1.6-0.3,2.8-0.6,3.7-1c0.7-0.3,1.1-0.7,1.3-1.1c0.1-0.1,0.1-0.3,0.1-0.4
	c0-0.4-0.3-0.8-0.7-0.9c-5-0.8-7.3-6-7.4-6.2c0,0,0,0,0,0c-0.3-0.5-0.3-0.9-0.2-1.3c0.3-0.6,1.3-1,2-1.2c0.2-0.1,0.4-0.1,0.5-0.2
	c0.7-0.3,1.2-0.6,1.5-0.9c0.4-0.4,0.5-0.8,0.5-1c0-0.6-0.5-1.1-1.2-1.4c-0.2-0.1-0.5-0.2-0.8-0.2c-0.2,0-0.5,0-0.8,0.2
	c-0.6,0.3-1.1,0.4-1.6,0.4c-0.2,0-0.4-0.1-0.5-0.1c0-0.2,0-0.5,0-0.7l0-0.1c0.2-2.5,0.4-5.7-0.5-7.6c-0.6-1.3-1.3-2.4-2.3-3.3
	c-0.8-0.8-1.7-1.4-2.7-1.8C274.9,274.5,273.2,274.4,272.4,274.4"/>
</svg>
