<?xml version="1.0" encoding="utf-8"?><!-- Generator: Adobe Illustrator 16.0.0, SVG Export Plug-In . SVG Version: 6.00 Build 0) --><!DOCTYPE svg PUBLIC "-//W3C//DTD SVG 1.1//EN" "http://www.w3.org/Graphics/SVG/1.1/DTD/svg11.dtd"><svg version="1.1" id="Layer_1" xmlns="http://www.w3.org/2000/svg" xmlns:xlink="http://www.w3.org/1999/xlink" x="0px" y="0px" width="52.916px" height="22.972px" viewBox="5.12 25.095 52.916 22.972" enable-background="new 5.12 25.095 52.916 22.972" xml:space="preserve"><linearGradient id="SVGID_1_" gradientUnits="userSpaceOnUse" x1="1172.791" y1="-1533.8779" x2="1172.791" y2="-1639.8756" gradientTransform="matrix(0.2065 0 0 -0.2065 -210.547 -291.0263)"><stop offset="0" style="stop-color:#FF8800"/><stop offset="1" style="stop-color:#FF3300"/></linearGradient><path fill="url(#SVGID_1_)" d="M15.835,47.9c-0.083-0.082-0.145-0.268-0.145-0.393c0-0.145-0.083-1.403-0.186-2.807l-0.186-2.561	l0.207-4.521c0.206-4.604,0.227-4.769,0.578-4.769c0.062,0,0.186,0.041,0.269,0.124c0.124,0.103,0.186,0.681,0.392,4.562	l0.248,4.459l-0.248,2.911c-0.145,1.61-0.289,2.973-0.351,3.034c-0.145,0.166-0.393,0.145-0.578-0.02V47.9z M17.94,47.839	c-0.103-0.145-0.186-1.012-0.33-3.097c-0.165-2.478-0.186-3.18-0.103-5.037c0.041-1.178,0.124-3.51,0.186-5.183	c0.062-1.672,0.124-3.138,0.145-3.303c0.083-0.537,0.702-0.619,0.826-0.103c0.021,0.103,0.145,2.601,0.269,5.532l0.227,5.348	l-0.227,2.767c-0.124,1.528-0.227,2.808-0.227,2.87c0,0.164-0.269,0.392-0.454,0.392c-0.104,0-0.227-0.083-0.31-0.206V47.839z M20.088,47.88c-0.145-0.145-0.186-0.372-0.227-1.445c-0.042-0.702-0.104-1.755-0.145-2.333c-0.124-1.465-0.104-3.365,0.041-7.887	c0.083-2.146,0.145-4.314,0.145-4.851c0.021-1.094,0.104-1.424,0.393-1.507c0.351-0.083,0.619,0.165,0.619,0.599	c0,0.207,0.103,2.89,0.207,5.946l0.207,5.554l-0.207,2.787c-0.104,1.527-0.207,2.828-0.207,2.891c0,0.164-0.269,0.392-0.475,0.392	c-0.103,0-0.248-0.083-0.351-0.165V47.88z M22.235,47.88c-0.103-0.124-0.165-0.372-0.207-0.764c-0.31-4.707-0.31-5.038-0.165-9.951	c0.186-6.771,0.227-7.412,0.392-7.577s0.62-0.165,0.764,0c0.083,0.083,0.145,1.28,0.248,3.964c0.248,7.494,0.269,8.691,0.103,11.148	c-0.186,2.787-0.206,3.034-0.392,3.199c-0.186,0.186-0.516,0.166-0.723-0.041L22.235,47.88z M24.382,47.859	c-0.103-0.104-0.186-0.33-0.186-0.475s-0.062-1.383-0.145-2.746c-0.145-2.291-0.145-2.932,0-8.485	c0.165-6.441,0.165-6.338,0.64-6.441c0.413-0.083,0.682,0.268,0.682,0.908c0,0.289,0.041,1.796,0.083,3.324	c0.041,1.528,0.103,3.86,0.145,5.183c0.021,1.301,0.062,2.436,0.083,2.498c0.021,0.062-0.042,1.362-0.145,2.89	c-0.103,1.528-0.186,2.87-0.186,2.974c0,0.247-0.33,0.578-0.619,0.578c-0.124,0-0.289-0.083-0.392-0.207H24.382z M26.591,47.88	c-0.186-0.186-0.207-0.413-0.392-3.716c-0.103-1.92-0.083-3.943,0.103-10.488c0.104-3.509,0.104-3.571,0.661-3.571	c0.186,0,0.372,0.062,0.475,0.186c0.186,0.186,0.186,0.33,0.268,3.344c0.021,0.949,0.104,3.262,0.145,5.12	c0.083,3.034,0.083,3.675-0.083,6.173c-0.165,2.684-0.186,2.787-0.392,2.952c-0.269,0.206-0.599,0.206-0.826,0H26.591z M28.779,47.88c-0.124-0.124-0.186-0.351-0.227-0.764c-0.145-1.59-0.248-5.533-0.207-7.866c0.021-1.445,0.083-3.654,0.104-4.955	c0.103-5.223,0.145-6.048,0.33-6.234c0.227-0.227,0.681-0.227,0.888,0c0.227,0.227,0.248,0.888,0.454,10.963	c0.062,3.035-0.145,8.361-0.351,8.732c-0.186,0.352-0.723,0.413-1.012,0.124H28.779z M31.03,47.859	c-0.145-0.104-0.269-0.31-0.289-0.475c-0.021-0.166-0.104-1.508-0.186-2.994c-0.103-2.126-0.124-3.406-0.062-6.008	c0.042-1.816,0.104-4.83,0.145-6.688c0.062-4.253,0.104-4.666,0.351-4.914c0.269-0.248,0.661-0.227,0.95,0.041	c0.207,0.207,0.227,0.289,0.248,1.342c0,0.619,0.021,1.238,0.041,1.362s0.042,1.879,0.083,3.901	c0.042,2.023,0.083,3.696,0.104,3.717c0.103,0.165,0.021,6.152-0.104,8.01c-0.083,1.156-0.145,2.189-0.145,2.271	c0,0.227-0.413,0.619-0.681,0.619C31.36,48.045,31.153,47.963,31.03,47.859z M33.032,47.818l-0.228-0.228V36.918V26.244l0.248-0.186	c0.289-0.227,1.383-0.578,2.478-0.805c1.177-0.227,3.097-0.207,4.315,0.041c4.871,1.012,8.34,4.749,9.125,9.827l0.062,0.33	l0.806-0.227c0.681-0.186,0.929-0.227,1.816-0.186c1.26,0.062,1.321,0.062,2.146,0.371c3.635,1.383,5.285,5.574,3.531,9.043	c-0.806,1.61-1.962,2.621-3.717,3.262l-0.66,0.248l-9.827,0.021l-9.827,0.021L33.032,47.818z M13.667,47.735	c-0.041-0.103-0.165-1.466-0.289-3.015c-0.207-2.725-0.207-2.849-0.062-4.582c0.083-0.971,0.166-2.168,0.207-2.643	c0.062-0.867,0.207-1.281,0.434-1.281c0.289,0,0.372,0.331,0.62,2.953l0.248,2.684l-0.248,2.85c-0.124,1.568-0.269,2.932-0.31,3.055	c-0.041,0.145-0.145,0.207-0.31,0.207s-0.248-0.062-0.31-0.207L13.667,47.735z M11.603,47.777c-0.021-0.042-0.165-1.363-0.289-2.932	l-0.248-2.85l0.248-2.952c0.124-1.631,0.289-3.015,0.331-3.076c0.124-0.145,0.31-0.145,0.434,0c0.062,0.062,0.227,1.425,0.372,3.056	l0.268,2.932l-0.268,2.849c-0.145,1.569-0.289,2.891-0.31,2.952c-0.041,0.124-0.475,0.166-0.537,0.041V47.777z M9.559,47.55	c-0.041-0.062-0.186-1.321-0.31-2.808l-0.248-2.705l0.227-2.56c0.124-1.403,0.248-2.746,0.268-2.952	c0.062-0.413,0.248-0.578,0.434-0.393c0.062,0.062,0.227,1.28,0.393,2.911l0.289,2.808l-0.269,2.705	c-0.145,1.486-0.31,2.787-0.351,2.91c-0.103,0.228-0.31,0.269-0.434,0.104V47.55z M7.474,46.683	c-0.021-0.083-0.165-1.218-0.289-2.498l-0.248-2.333l0.268-2.374c0.248-2.271,0.289-2.374,0.475-2.415	c0.227-0.042,0.206-0.145,0.578,2.725l0.268,2.146l-0.268,2.251c-0.145,1.239-0.31,2.333-0.351,2.456	c-0.104,0.248-0.331,0.27-0.393,0.042H7.474z M5.554,44.948c-0.021-0.083-0.145-0.784-0.248-1.548L5.12,41.996l0.207-1.486	c0.103-0.826,0.248-1.549,0.289-1.61c0.206-0.248,0.351,0.145,0.557,1.61L6.4,41.996l-0.227,1.486	c-0.124,0.826-0.289,1.527-0.351,1.569c-0.165,0.103-0.227,0.083-0.289-0.083L5.554,44.948z"/></svg>