<?xml version="1.0" encoding="utf-8"?>
<!-- Generator: Adobe Illustrator 15.0.0, SVG Export Plug-In . SVG Version: 6.00 Build 0)  -->
<!DOCTYPE svg PUBLIC "-//W3C//DTD SVG 1.1//EN" "http://www.w3.org/Graphics/SVG/1.1/DTD/svg11.dtd">
<svg version="1.1" id="Layer_1" xmlns="http://www.w3.org/2000/svg" xmlns:xlink="http://www.w3.org/1999/xlink" x="0px" y="0px"
	 width="95.5px" height="113.998px" viewBox="0 0 95.5 113.998" enable-background="new 0 0 95.5 113.998" xml:space="preserve">
<g>
	<g>
		<path fill="#B58F52" d="M63.278,73.176L19.852,62.643l2.106-8.685L65.384,64.49L63.278,73.176"/>
		<path fill="#C78431" d="M66.189,62.785L26.398,42.453l4.066-7.958l39.791,20.332L66.189,62.785"/>
		<path fill="#E9812C" d="M72.318,52.021L38.668,22.623l5.879-6.73l33.649,29.398L72.318,52.021"/>
		<path fill="#E5712A" d="M81.574,42.561L56.482,5.588l7.396-5.019L88.97,37.542L81.574,42.561"/>
		<path fill="#9D8469" d="M62.582,84.038l-44.618-2.437l0.487-8.925l44.616,2.438L62.582,84.038"/>
		<path fill="#797B7B" d="M71.833,105.059V68.035h8.929l0.006,45.963H0l0.002-46.002h8.937v37.062H71.833"/>
		<path fill="#797B7B" d="M17.84,87.221h44.987v8.938H17.84V87.221z"/>
	</g>
</g>
</svg>
