<?xml version="1.0" encoding="utf-8"?>
<!-- Generator: Adobe Illustrator 19.0.0, SVG Export Plug-In . SVG Version: 6.00 Build 0)  -->
<svg version="1.1"
	 id="svg2" xmlns:cc="http://creativecommons.org/ns#" xmlns:dc="http://purl.org/dc/elements/1.1/" xmlns:inkscape="http://www.inkscape.org/namespaces/inkscape" xmlns:rdf="http://www.w3.org/1999/02/22-rdf-syntax-ns#" xmlns:sodipodi="http://sodipodi.sourceforge.net/DTD/sodipodi-0.dtd" xmlns:svg="http://www.w3.org/2000/svg" sodipodi:docname="a2c88e812ef42ae72650a2e4e4745a90.png" inkscape:version="0.48.4 r9939"
	 xmlns="http://www.w3.org/2000/svg" xmlns:xlink="http://www.w3.org/1999/xlink" x="0px" y="0px" width="50px" height="50px"
	 viewBox="110 130 50 50" style="enable-background:new 110 130 50 50;" xml:space="preserve">
<style type="text/css">
	.st0{fill:url(#path2995-1-0_1_);}
	.st1{fill:#C8DAEA;}
	.st2{fill:#A9C9DD;}
	.st3{fill:url(#path2991_1_);}
</style>
<linearGradient id="path2995-1-0_1_" gradientUnits="userSpaceOnUse" x1="-502.1121" y1="-498.183" x2="-504.1954" y2="-493.3218" gradientTransform="matrix(6 0 0 6 3155 3127)">
	<stop  offset="0" style="stop-color:#37AEE2"/>
	<stop  offset="1" style="stop-color:#1E96C8"/>
</linearGradient>
<path id="path2995-1-0" sodipodi:type="arc" sodipodi:ry="20" sodipodi:rx="20" sodipodi:cy="70" sodipodi:cx="10" class="st0" d="
	M160,155c0,13.8-11.2,25-25,25s-25-11.2-25-25s11.2-25,25-25S160,141.2,160,155z"/>
<path id="path2993" sodipodi:nodetypes="ccccccc" inkscape:connector-curvature="0" class="st1" d="M130.4,166.5
	c-0.8,0-0.7-0.3-1-1.1l-2.4-7.8l14.7-9.2l1.7,0.5l-1.4,3.9L130.4,166.5z"/>
<path id="path2989" sodipodi:nodetypes="csccccc" inkscape:connector-curvature="0" class="st2" d="M130.4,166.5
	c0.6,0,0.9-0.3,1.2-0.6c0.5-0.5,7.5-7.3,7.5-7.3l-4.3-1l-4,2.5l-0.5,6.2V166.5z"/>
<linearGradient id="path2991_1_" gradientUnits="userSpaceOnUse" x1="136.8767" y1="-66.2198" x2="142.085" y2="-57.8865" gradientTransform="matrix(1 0 0 1 0 222)">
	<stop  offset="0" style="stop-color:#EFF7FC"/>
	<stop  offset="1" style="stop-color:#FFFFFF"/>
</linearGradient>
<path id="path2991" sodipodi:nodetypes="ccccccccccc" inkscape:connector-curvature="0" class="st3" d="M130.8,160.1l10.1,7.4
	c1.1,0.6,2,0.3,2.3-1.1l4.1-19.3c0.4-1.7-0.6-2.4-1.8-1.9l-24.1,9.3c-1.6,0.7-1.6,1.6-0.3,2l6.2,1.9l14.3-9c0.7-0.4,1.3-0.2,0.8,0.3
	L130.8,160.1z"/>
</svg>
