<?xml version="1.0" encoding="utf-8"?><!-- Generator: Adobe Illustrator 16.0.0, SVG Export Plug-In . SVG Version: 6.00 Build 0) --><!DOCTYPE svg PUBLIC "-//W3C//DTD SVG 1.1//EN" "http://www.w3.org/Graphics/SVG/1.1/DTD/svg11.dtd"><svg version="1.1" id="Layer_1" xmlns="http://www.w3.org/2000/svg" xmlns:xlink="http://www.w3.org/1999/xlink" x="0px" y="0px" width="49.098px" height="42.467px" viewBox="8.36 12.293 49.098 42.467" enable-background="new 8.36 12.293 49.098 42.467" xml:space="preserve"><path fill="#1AB7EA" d="M27.24,53.653c-2.56-2.134-3.627-4.479-6.187-14.399C18.387,29.44,17,25.707,15.507,25.173	c-1.92,0-3.2,0.854-4.907,1.707c-0.747-0.96-1.494-1.813-2.24-2.773l4.16-3.946c7.146-6.72,10.88-8.427,13.973-6.293	c2.027,1.387,2.88,3.626,4.16,10.88c1.6,8.96,2.773,13.013,4.054,14.187c1.066,0.96,1.173,0.854,2.773-0.641	c2.56-2.453,5.76-8.853,5.76-11.626c0-2.88-1.28-3.733-4.587-3.2l-2.239,0.32l0.959-2.347c1.28-3.2,4.48-6.827,7.254-8.106	c3.094-1.387,7.467-1.387,9.812,0c2.348,1.386,3.201,4.267,2.987,9.066c-0.32,4.907-2.987,10.346-9.067,18.454	c-9.066,12.16-16.319,16.427-20.906,12.48L27.24,53.653z"/></svg>