<?xml version="1.0" encoding="utf-8"?>
<!-- Generator: Adobe Illustrator 19.0.0, SVG Export Plug-In . SVG Version: 6.00 Build 0)  -->
<svg version="1.1" id="Layer_1" xmlns="http://www.w3.org/2000/svg" xmlns:xlink="http://www.w3.org/1999/xlink" x="0px" y="0px"
	 width="50px" height="20px" viewBox="0 0 50 20" style="enable-background:new 0 0 50 20;" xml:space="preserve">
<path style="fill-rule:evenodd;clip-rule:evenodd;" d="M45.378,16.234L50,0h-1.348L44.03,16.234H45.378z M39.608,16.234L44.23,0
	h-1.348L38.26,16.234H39.608z M35.765,16.005c0.698,0,1.3-0.574,1.3-1.24c0-0.643-0.602-1.217-1.3-1.217
	c-0.698,0-1.276,0.574-1.276,1.217C34.489,15.431,35.067,16.005,35.765,16.005z M35.765,6.958c0.698,0,1.3-0.551,1.3-1.194
	c0-0.689-0.602-1.24-1.3-1.24c-0.698,0-1.276,0.551-1.276,1.24C34.489,6.406,35.067,6.958,35.765,6.958z M27.636,14.581
	c-1.107,0-2.191-0.873-2.648-1.837V7.669c0.457-0.964,1.541-1.791,2.648-1.791c1.902,0,2.792,1.952,2.792,4.34
	C30.429,12.629,29.538,14.581,27.636,14.581z M28.069,16.051c2.624,0,4.165-2.365,4.165-5.832c0-3.49-1.541-5.809-4.165-5.809
	c-1.228,0-2.407,0.735-3.081,1.86V4.684h-1.709V20h1.709v-5.832C25.71,15.408,26.866,16.051,28.069,16.051z M19.796,16.051
	c0.891,0,1.468-0.276,1.902-0.666l-0.53-1.24c-0.217,0.253-0.578,0.436-1.011,0.436c-0.674,0-0.939-0.505-0.939-1.332V6.131h1.95
	V4.684h-1.95V1.653h-1.733v3.031h-1.541v1.447h1.541v7.417C17.485,15.178,18.231,16.051,19.796,16.051z M13.666,16.051
	c0.891,0,1.468-0.276,1.902-0.666l-0.53-1.24c-0.217,0.253-0.578,0.436-1.011,0.436c-0.674,0-0.939-0.505-0.939-1.332V6.131h1.95
	V4.684h-1.95V1.653h-1.733v3.031H9.814v1.447h1.541v7.417C11.355,15.178,12.101,16.051,13.666,16.051z M8.04,15.775V7.394
	c0-2.044-0.963-2.985-2.937-2.985c-1.396,0-2.72,0.896-3.394,1.86V0.459H0v15.316h1.709V7.646c0.53-0.896,1.589-1.768,2.744-1.768
	c1.156,0,1.854,0.505,1.854,1.975v7.922H8.04z"/>
</svg>
