<?xml version="1.0" encoding="utf-8"?>
<!-- Generator: Adobe Illustrator 19.0.0, SVG Export Plug-In . SVG Version: 6.00 Build 0)  -->
<svg version="1.1" id="Layer_1" xmlns="http://www.w3.org/2000/svg" xmlns:xlink="http://www.w3.org/1999/xlink" x="0px" y="0px"
	 width="50px" height="50px" viewBox="502 522 50 50" style="enable-background:new 502 522 50 50;" xml:space="preserve">
<style type="text/css">
	.st0{fill:url(#SVGID_2_);}
	.st1{fill:#FFFFFF;}
</style>
<linearGradient id="SVGID_2_" gradientUnits="userSpaceOnUse" x1="527" y1="-502" x2="527" y2="-552.0001" gradientTransform="matrix(1 0 0 -1 0 20)">
	<stop  offset="0" style="stop-color:#61FD7D"/>
	<stop  offset="1" style="stop-color:#2BB826"/>
</linearGradient>
<path id="SVGID_1_" class="st0" d="M552,559.3c0,0.3,0,0.9,0,1.3c0,1.1-0.1,2.6-0.3,3.2c-0.2,1-0.5,1.9-0.9,2.7
	c-0.5,0.9-1.1,1.7-1.8,2.5c-0.7,0.7-1.5,1.3-2.5,1.8c-0.8,0.4-1.7,0.7-2.7,0.9c-0.7,0.1-2.1,0.2-3.2,0.3c-0.5,0-1.1,0-1.3,0l-24.6,0
	c-0.3,0-0.9,0-1.3,0c-1.1,0-2.6-0.1-3.2-0.3c-1-0.2-1.9-0.5-2.7-0.9c-0.9-0.5-1.7-1.1-2.5-1.8c-0.7-0.7-1.3-1.5-1.8-2.5
	c-0.4-0.8-0.7-1.7-0.9-2.7c-0.1-0.7-0.2-2.1-0.3-3.2c0-0.5,0-1.1,0-1.3l0-24.6c0-0.3,0-0.9,0-1.3c0-1.1,0.1-2.6,0.3-3.2
	c0.2-1,0.5-1.9,0.9-2.7c0.5-0.9,1.1-1.7,1.8-2.5c0.7-0.7,1.5-1.3,2.5-1.8c0.8-0.4,1.7-0.7,2.7-0.9c0.7-0.1,2.1-0.2,3.2-0.3
	c0.5,0,1.1,0,1.3,0l24.6,0c0.3,0,0.9,0,1.3,0c1.1,0,2.6,0.1,3.2,0.3c1,0.2,1.9,0.5,2.7,0.9c0.9,0.5,1.7,1.1,2.5,1.8
	c0.7,0.7,1.3,1.5,1.8,2.5c0.4,0.8,0.7,1.7,0.9,2.7c0.1,0.7,0.2,2.1,0.3,3.2c0,0.5,0,1.1,0,1.3L552,559.3z"/>
<path class="st1" d="M540.2,533.8c-3.4-3.4-7.9-5.3-12.7-5.3c-9.9,0-17.9,8-17.9,17.9c0,3.2,0.8,6.2,2.4,9l-2.5,9.3l9.5-2.5
	c2.6,1.4,5.6,2.2,8.6,2.2h0c0,0,0,0,0,0c9.9,0,17.9-8,17.9-17.9C545.5,541.7,543.6,537.2,540.2,533.8z M527.6,561.4L527.6,561.4
	c-2.7,0-5.3-0.7-7.6-2.1l-0.5-0.3l-5.6,1.5l1.5-5.5l-0.4-0.6c-1.5-2.4-2.3-5.1-2.3-7.9c0-8.2,6.7-14.9,14.9-14.9
	c4,0,7.7,1.6,10.5,4.4s4.4,6.6,4.4,10.5C542.5,554.7,535.8,561.4,527.6,561.4z M535.7,550.2c-0.4-0.2-2.7-1.3-3.1-1.5
	s-0.7-0.2-1,0.2c-0.3,0.4-1.2,1.5-1.4,1.8c-0.3,0.3-0.5,0.3-1,0.1s-1.9-0.7-3.6-2.2c-1.3-1.2-2.2-2.7-2.5-3.1
	c-0.3-0.4,0-0.7,0.2-0.9c0.2-0.2,0.4-0.5,0.7-0.8c0.2-0.3,0.3-0.4,0.4-0.7c0.1-0.3,0.1-0.6,0-0.8c-0.1-0.2-1-2.4-1.4-3.3
	c-0.4-0.9-0.7-0.8-1-0.8c-0.3,0-0.6,0-0.9,0c-0.3,0-0.8,0.1-1.2,0.6c-0.4,0.4-1.6,1.5-1.6,3.7c0,2.2,1.6,4.3,1.8,4.6
	c0.2,0.3,3.2,4.8,7.7,6.8c1.1,0.5,1.9,0.7,2.6,0.9c1.1,0.3,2,0.3,2.8,0.2c0.9-0.1,2.7-1.1,3-2.1c0.4-1,0.4-1.9,0.3-2.1
	C536.5,550.6,536.2,550.5,535.7,550.2z"/>
</svg>
