<?xml version="1.0" encoding="iso-8859-1"?>
<!-- Generator: Adobe Illustrator 16.0.0, SVG Export Plug-In . SVG Version: 6.00 Build 0)  -->
<!DOCTYPE svg PUBLIC "-//W3C//DTD SVG 1.1//EN" "http://www.w3.org/Graphics/SVG/1.1/DTD/svg11.dtd">
<svg version="1.1" id="svg2268" xmlns:svg="http://www.w3.org/2000/svg"
	 xmlns="http://www.w3.org/2000/svg" xmlns:xlink="http://www.w3.org/1999/xlink" x="0px" y="0px" width="170.207px" height="200px"
	 viewBox="426.896 102.499 170.207 200" style="enable-background:new 426.896 102.499 170.207 200;" xml:space="preserve">
<g id="layer1" transform="translate(-194.8708,-324.33481)">
	<path id="path19359" style="fill:#005A5F;" d="M637.265,466.334c-1.736,0-3.197,0.61-3.934,1.804
		c-0.76,1.231-0.645,2.818,0.166,4.424L653,506.323c0.033,0.064,0.033,0.105,0,0.164l-30.648,54.084
		c-0.799,1.592-0.76,3.191,0,4.425c0.736,1.187,2.033,1.966,3.771,1.966h28.844c4.312,0,6.393-2.91,7.867-5.57
		c0,0,29.973-53.01,31.139-55.068c-0.117-0.19-19.83-34.581-19.83-34.581c-1.438-2.556-3.605-5.409-8.029-5.409L637.265,466.334
		L637.265,466.334z"/>
	<path id="path19375" style="fill:#D4D600;" d="M758.445,426.836c-4.309,0-6.176,2.714-7.723,5.494c0,0-62.141,110.2-64.188,113.818
		c0.105,0.196,40.984,75.191,40.984,75.191c1.432,2.558,3.641,5.494,8.059,5.494h28.811c1.738,0,3.096-0.654,3.828-1.843
		c0.77-1.231,0.748-2.857-0.059-4.458l-40.664-74.295c-0.039-0.06-0.039-0.131,0-0.189l63.863-112.921
		c0.803-1.593,0.82-3.219,0.061-4.451c-0.736-1.188-2.098-1.843-3.836-1.843h-29.139v0.002H758.445z"/>
</g>
</svg>
