<?xml version="1.0" encoding="utf-8"?>
<!-- Generator: Adobe Illustrator 19.0.0, SVG Export Plug-In . SVG Version: 6.00 Build 0)  -->
<svg version="1.1" id="Youtube" xmlns="http://www.w3.org/2000/svg" xmlns:xlink="http://www.w3.org/1999/xlink" x="0px" y="0px"
	 width="50px" height="35px" viewBox="-452 300 50 35" style="enable-background:new -452 300 50 35;" xml:space="preserve">
<style type="text/css">
	.st0{fill:#FFFFFF;}
	.st1{fill:#E8E0E0;}
	.st2{fill:#CD201F;}
</style>
<path class="st0" d="M-418.694,316.99c-4.584-2.442-8.974-4.687-13.461-7.031c0,4.667,0,9.354,0,14.021
	c4.722-2.558,9.699-4.901,13.481-6.991C-418.674,316.99-418.694,316.99-418.694,316.99z"/>
<path class="st1" d="M-418.694,316.99c-4.584-2.442-13.461-7.031-13.461-7.031l11.835,7.928
	C-420.319,317.888-422.476,319.08-418.694,316.99z"/>
<path class="st2" d="M-431.292,334.957c-9.522-0.175-12.775-0.332-14.774-0.742c-1.353-0.273-2.528-0.878-3.39-1.757
	c-0.666-0.665-1.196-1.679-1.607-3.086c-0.353-1.172-0.49-2.148-0.686-4.53c-0.3-5.377-0.371-9.774,0-14.686
	c0.306-2.713,0.455-5.933,2.488-7.812c0.96-0.879,2.077-1.445,3.331-1.679c1.959-0.371,10.306-0.664,18.947-0.664
	c8.622,0,16.987,0.293,18.948,0.664c1.567,0.293,3.036,1.171,3.899,2.304c1.855,2.909,1.888,6.526,2.076,9.355
	c0.078,1.348,0.078,9.003,0,10.351c-0.293,4.471-0.529,6.053-1.195,7.693c-0.412,1.036-0.763,1.582-1.372,2.188
	c-0.942,0.917-2.136,1.542-3.488,1.777C-416.353,334.949-423.351,335.083-431.292,334.957z M-418.673,316.99
	c-4.584-2.442-8.974-4.706-13.461-7.05c0,4.667,0,9.355,0,14.022c4.722-2.558,9.699-4.902,13.481-6.992L-418.673,316.99z"/>
</svg>
